<svg xmlns="http://www.w3.org/2000/svg" viewBox="0 0 1571 2000"><defs><style>.cls-1{fill:#fff;}.cls-1,.cls-7{stroke:#236294;stroke-miterlimit:10;}.cls-10,.cls-2,.cls-3{font-size:24px;}.cls-2,.cls-3{fill:#231f20;}.cls-10,.cls-11,.cls-2{font-family:Arial-BoldMT, Arial;}.cls-10,.cls-12,.cls-2{font-weight:700;}.cls-13,.cls-3{font-family:ArialMT, Arial;}.cls-4{letter-spacing:1.22em;}.cls-5{letter-spacing:-0.06em;}.cls-6{letter-spacing:-0.07em;}.cls-7{fill:none;}.cls-8{letter-spacing:-0.04em;}.cls-9{letter-spacing:-0.11em;}.cls-10,.cls-11{fill:#236294;}.cls-11{font-size:72px;}.cls-13{font-size:28.94px;}</style></defs><title>classdiagram</title><g id="Major_copy" data-name="Major copy"><rect class="cls-1" x="1117.13" y="66.53" width="396.87" height="35.55"/><rect class="cls-1" x="1117.13" y="102.07" width="396.87" height="181.94"/><rect class="cls-1" x="1117.13" y="284.02" width="396.87" height="382.48"/><text class="cls-2" transform="translate(1243.02 92.16)">Study_Plan</text><text class="cls-3" transform="translate(1124.12 129.49)">university:University<tspan x="0" y="28.8">faculty:Faculty</tspan><tspan x="0" y="57.6">major:Major</tspan><tspan x="0" y="86.4">sem_credits:int</tspan><tspan x="0" y="115.2">courses:list&lt;Course&gt;</tspan><tspan x="0" y="144">semester:int</tspan></text><text class="cls-3" transform="translate(1124.12 311.44)">__init__(university:University=None,<tspan class="cls-4" x="0" y="28.8">	</tspan><tspan x="36" y="28.8">faculty:Faculty=None,</tspan><tspan class="cls-4" x="0" y="57.6">	</tspan><tspan x="36" y="57.6">major:Major=None,</tspan><tspan class="cls-4" x="0" y="86.4">	</tspan><tspan x="36" y="86.4">sem_credits:int=None,</tspan><tspan class="cls-4" x="0" y="115.2">	</tspan><tspan x="36" y="115.2">courses:list&lt;Course&gt;=None,</tspan><tspan class="cls-4" x="0" y="144">	</tspan><tspan x="36" y="144">semester:int=1</tspan><tspan class="cls-4" x="0" y="172.8">	</tspan><tspan x="36" y="172.8">):Study_Plan</tspan><tspan x="0" y="201.6">as_list(as_str:bool=False</tspan><tspan class="cls-4" x="0" y="230.4">	</tspan><tspan x="36" y="230.4">):list[st</tspan><tspan class="cls-5" x="105.33" y="230.4">r</tspan><tspan x="112" y="230.4">,st</tspan><tspan class="cls-5" x="137.33" y="230.4">r</tspan><tspan x="144" y="230.4">,st</tspan><tspan class="cls-5" x="169.34" y="230.4">r</tspan><tspan x="176" y="230.4">,</tspan><tspan class="cls-4" x="0" y="259.2" xml:space="preserve">		</tspan><tspan x="72" y="259.2">int,int,list&lt;st</tspan><tspan class="cls-5" x="198.05" y="259.2">r</tspan><tspan x="204.71" y="259.2">,int&gt;]</tspan><tspan class="cls-4" x="0" y="288">	</tspan><tspan x="36" y="288">||list[Universit</tspan><tspan class="cls-6" x="177.82" y="288">y</tspan><tspan x="188.04" y="288">, Facult</tspan><tspan class="cls-6" x="266.73" y="288">y</tspan><tspan x="276.95" y="288">, Majo</tspan><tspan class="cls-5" x="342.3" y="288">r</tspan><tspan x="348.97" y="288">,</tspan><tspan class="cls-4" x="0" y="316.8" xml:space="preserve">		</tspan><tspan x="72" y="316.8">int, int, list&lt;Course&gt;]</tspan><tspan x="0" y="345.6">__str__():str</tspan></text><polyline class="cls-7" points="887.67 1715.5 1027 1715.5 1027 589.36 1117.13 589.36"/><polyline class="cls-7" points="858.83 1303.5 991 1303.5 991 489.13 1117.13 489.13"/><polyline class="cls-7" points="858.83 777.35 953.8 777.35 953.8 399.13 1117.13 399.13"/></g><g id="DBProcess"><rect class="cls-1" x="58.18" y="922.78" width="350.96" height="35.55"/><rect class="cls-1" x="58.18" y="958.33" width="350.96" height="65.47"/><rect class="cls-1" x="58.18" y="1024.78" width="350.96" height="935.51"/><text class="cls-2" transform="translate(185.39 948.41)">DBProcess</text><text class="cls-3" transform="translate(65.17 985.75)">courses_path:str<tspan x="0" y="28.8">db:dict</tspan></text><text class="cls-3" transform="translate(65.17 1052.2)">__init__(<tspan class="cls-4" x="0" y="28.8">	</tspan><tspan x="36" y="28.8">path:str=’courses.json</tspan><tspan class="cls-8" x="270.12" y="28.8">’</tspan><tspan class="cls-4" x="0" y="57.6">	</tspan><tspan x="36" y="57.6">):DBProcess</tspan><tspan x="0" y="86.4">fetch_json(</tspan><tspan class="cls-4" x="0" y="115.2">	</tspan><tspan x="36" y="115.2">path:str=’courses.json</tspan><tspan class="cls-8" x="270.12" y="115.2">’</tspan><tspan class="cls-4" x="0" y="144">	</tspan><tspan x="36" y="144">):DBProcess</tspan><tspan x="0" y="172.8">wrap_as_object(</tspan><tspan class="cls-4" x="0" y="201.6">	</tspan><tspan x="36" y="201.6">prune_defaults:bool=</tspan><tspan class="cls-8" x="260.85" y="201.6">T</tspan><tspan x="274.62" y="201.6">rue</tspan><tspan class="cls-4" x="0" y="230.4">	</tspan><tspan x="36" y="230.4">): list&lt;University&gt;,</tspan><tspan class="cls-4" x="0" y="259.2">	</tspan><tspan x="36" y="259.2">list&lt;Faculty&gt;,</tspan><tspan class="cls-4" x="0" y="288">	</tspan><tspan x="36" y="288">list&lt;Major&gt;,</tspan><tspan class="cls-4" x="0" y="316.8">	</tspan><tspan x="36" y="316.8">list&lt;Course&gt;</tspan><tspan x="0" y="345.6">DEPREC</tspan><tspan class="cls-6" x="100.02" y="345.6">A</tspan><tspan x="114.25" y="345.6">TED courses_from(</tspan><tspan class="cls-4" x="0" y="374.4">	</tspan><tspan x="36" y="374.4">grade:int,</tspan><tspan class="cls-4" x="0" y="403.2">	</tspan><tspan x="36" y="403.2">university:Universit</tspan><tspan class="cls-6" x="237.39" y="403.2">y</tspan><tspan x="247.61" y="403.2">,</tspan><tspan class="cls-4" x="0" y="432">	</tspan><tspan x="36" y="432">faculty:Facult</tspan><tspan class="cls-6" x="177.39" y="432">y</tspan><tspan x="187.61" y="432">,</tspan><tspan class="cls-4" x="0" y="460.8">	</tspan><tspan x="36" y="460.8">major:Majo</tspan><tspan class="cls-5" x="154.7" y="460.8">r</tspan><tspan x="161.37" y="460.8">,</tspan><tspan class="cls-4" x="0" y="489.6">	</tspan><tspan x="36" y="489.6">unique:bool=</tspan><tspan class="cls-8" x="174.13" y="489.6">T</tspan><tspan x="187.9" y="489.6">rue,</tspan><tspan class="cls-4" x="0" y="518.4">	</tspan><tspan x="36" y="518.4">prune_defaults:bool=</tspan><tspan class="cls-8" x="260.85" y="518.4">T</tspan><tspan x="274.62" y="518.4">rue</tspan><tspan class="cls-4" x="0" y="547.2">	</tspan><tspan x="36" y="547.2">):None</tspan><tspan x="0" y="576">DEPREC</tspan><tspan class="cls-6" x="100.02" y="576">A</tspan><tspan x="114.25" y="576">TED all_courses(</tspan><tspan class="cls-4" x="0" y="604.8">	</tspan><tspan x="36" y="604.8">unique:bool=</tspan><tspan class="cls-8" x="174.13" y="604.8">T</tspan><tspan x="187.9" y="604.8">rue,</tspan><tspan class="cls-4" x="0" y="633.6">	</tspan><tspan x="36" y="633.6">prune_defaults:bool=</tspan><tspan class="cls-8" x="260.85" y="633.6">T</tspan><tspan x="274.62" y="633.6">rue</tspan><tspan class="cls-4" x="0" y="662.4">	</tspan><tspan x="36" y="662.4">):list&lt;Course&gt;</tspan><tspan x="0" y="691.2">DEPREC</tspan><tspan class="cls-6" x="100.02" y="691.2">A</tspan><tspan x="114.25" y="691.2">TED all_majors(</tspan><tspan class="cls-4" x="0" y="720">	</tspan><tspan x="36" y="720">unique:bool=</tspan><tspan class="cls-8" x="174.13" y="720">T</tspan><tspan x="187.9" y="720">rue,</tspan><tspan class="cls-4" x="0" y="748.8">	</tspan><tspan x="36" y="748.8">prune_defaults:bool=</tspan><tspan class="cls-8" x="260.85" y="748.8">T</tspan><tspan x="274.62" y="748.8">rue</tspan><tspan class="cls-4" x="0" y="777.6">	</tspan><tspan x="36" y="777.6">):list&lt;Major&gt;</tspan><tspan x="0" y="806.4">DEPREC</tspan><tspan class="cls-6" x="100.02" y="806.4">A</tspan><tspan x="114.25" y="806.4">TED all_universities(</tspan><tspan class="cls-4" x="0" y="835.2">	</tspan><tspan x="36" y="835.2">unique:bool=</tspan><tspan class="cls-8" x="174.13" y="835.2">T</tspan><tspan x="187.9" y="835.2">rue,</tspan><tspan class="cls-4" x="0" y="864">	</tspan><tspan x="36" y="864">prune_defaults:bool=</tspan><tspan class="cls-8" x="260.85" y="864">T</tspan><tspan x="274.62" y="864">rue</tspan><tspan class="cls-4" x="0" y="892.8">	</tspan><tspan x="36" y="892.8">):list&lt;University&gt;</tspan></text><line class="cls-7" x1="1117.13" y1="307.5" x2="871.99" y2="307.5"/></g><g id="Tags"><rect class="cls-1" x="58.18" y="55.34" width="360.87" height="35.55"/><rect class="cls-1" x="58.18" y="90.88" width="360.87" height="96.67"/><rect class="cls-1" x="58.18" y="187.55" width="360.87" height="444.37"/><text class="cls-2" transform="translate(218.17 80.97)"><tspan class="cls-6">T</tspan><tspan x="12.88" y="0">ag</tspan></text><text class="cls-3" transform="translate(65.17 118.3)">name:str<tspan x="0" y="28.8">courses:list&lt;Course&gt;</tspan><tspan x="0" y="57.6">collection_parent:</tspan><tspan class="cls-9" x="188.12" y="57.6">T</tspan><tspan x="200.12" y="57.6">ags</tspan></text><text class="cls-3" transform="translate(65.17 214.97)">__init__(name:str=None,<tspan class="cls-4" x="0" y="28.8">	</tspan><tspan x="36" y="28.8">courses:list&lt;Course&gt;=[]</tspan><tspan class="cls-4" x="0" y="57.6">	</tspan><tspan x="36" y="57.6">collection_parent:</tspan><tspan class="cls-9" x="224.12" y="57.6">T</tspan><tspan x="236.12" y="57.6">ags=None</tspan><tspan class="cls-4" x="0" y="86.4">	</tspan><tspan x="36" y="86.4">):</tspan><tspan class="cls-9" x="50.66" y="86.4">T</tspan><tspan x="62.66" y="86.4">ag</tspan><tspan x="0" y="115.2">add_course(</tspan><tspan class="cls-4" x="0" y="144">	</tspan><tspan x="36" y="144">course:Course</tspan><tspan class="cls-4" x="0" y="172.8">	</tspan><tspan x="36" y="172.8">):None</tspan><tspan x="0" y="201.6">assoc_coll_parent(</tspan><tspan class="cls-4" x="0" y="230.4">	</tspan><tspan x="36" y="230.4">collection_parent:</tspan><tspan class="cls-9" x="224.12" y="230.4">T</tspan><tspan x="236.12" y="230.4">ags</tspan><tspan class="cls-4" x="0" y="259.2">	</tspan><tspan x="36" y="259.2">):</tspan><tspan class="cls-9" x="50.66" y="259.2">T</tspan><tspan x="62.66" y="259.2">ag</tspan><tspan x="0" y="288">find_common_with_other(</tspan><tspan class="cls-4" x="0" y="316.8">	</tspan><tspan x="36" y="316.8">other_tags:list&lt;</tspan><tspan class="cls-9" x="199.43" y="316.8">T</tspan><tspan x="211.43" y="316.8">ag&gt;=None</tspan><tspan class="cls-4" x="0" y="345.6">	</tspan><tspan x="36" y="345.6">):list&lt;Course&gt;</tspan><tspan x="0" y="374.4">@staticmethod find_common(</tspan><tspan class="cls-4" x="0" y="403.2">	</tspan><tspan x="36" y="403.2">*tags): list&lt;Course&gt;</tspan></text><rect class="cls-1" x="112.68" y="720.6" width="251.87" height="35.55"/><rect class="cls-1" x="112.68" y="756.15" width="251.87" height="42.41"/><rect class="cls-1" x="112.68" y="798.56" width="251.87" height="73.08"/><text class="cls-2" transform="translate(211.5 746.23)"><tspan class="cls-6">T</tspan><tspan x="12.88" y="0">ags</tspan></text><text class="cls-3" transform="translate(119.67 783.56)">tags:dict&lt;st<tspan class="cls-5" x="122.06" y="0">r</tspan><tspan x="128.73" y="0">,</tspan><tspan class="cls-9" x="135.4" y="0">T</tspan><tspan x="147.4" y="0">ag&gt;</tspan></text><text class="cls-3" transform="translate(119.67 825.98)">__init__():<tspan class="cls-9" x="106.72" y="0">T</tspan><tspan x="118.72" y="0">ags</tspan><tspan x="0" y="28.8">add_tag(tag:</tspan><tspan class="cls-9" x="134.78" y="28.8">T</tspan><tspan x="146.78" y="28.8">ag):</tspan><tspan class="cls-9" x="188.13" y="28.8">T</tspan><tspan x="200.13" y="28.8">ags</tspan></text></g><g id="Tag"><rect class="cls-1" x="58.18" y="55.34" width="360.87" height="35.55"/><rect class="cls-1" x="58.18" y="90.88" width="360.87" height="96.67"/><rect class="cls-1" x="58.18" y="187.55" width="360.87" height="444.37"/><text class="cls-2" transform="translate(218.17 80.97)"><tspan class="cls-6">T</tspan><tspan x="12.88" y="0">ag</tspan></text><text class="cls-3" transform="translate(65.17 118.3)">name:str<tspan x="0" y="28.8">courses:list&lt;Course&gt;</tspan><tspan x="0" y="57.6">collection_parent:</tspan><tspan class="cls-9" x="188.12" y="57.6">T</tspan><tspan x="200.12" y="57.6">ags</tspan></text><text class="cls-3" transform="translate(65.17 214.97)">__init__(name:str=None,<tspan class="cls-4" x="0" y="28.8">	</tspan><tspan x="36" y="28.8">courses:list&lt;Course&gt;=[]</tspan><tspan class="cls-4" x="0" y="57.6">	</tspan><tspan x="36" y="57.6">collection_parent:</tspan><tspan class="cls-9" x="224.12" y="57.6">T</tspan><tspan x="236.12" y="57.6">ags=None</tspan><tspan class="cls-4" x="0" y="86.4">	</tspan><tspan x="36" y="86.4">):</tspan><tspan class="cls-9" x="50.66" y="86.4">T</tspan><tspan x="62.66" y="86.4">ag</tspan><tspan x="0" y="115.2">add_course(</tspan><tspan class="cls-4" x="0" y="144">	</tspan><tspan x="36" y="144">course:Course</tspan><tspan class="cls-4" x="0" y="172.8">	</tspan><tspan x="36" y="172.8">):None</tspan><tspan x="0" y="201.6">assoc_coll_parent(</tspan><tspan class="cls-4" x="0" y="230.4">	</tspan><tspan x="36" y="230.4">collection_parent:</tspan><tspan class="cls-9" x="224.12" y="230.4">T</tspan><tspan x="236.12" y="230.4">ags</tspan><tspan class="cls-4" x="0" y="259.2">	</tspan><tspan x="36" y="259.2">):</tspan><tspan class="cls-9" x="50.66" y="259.2">T</tspan><tspan x="62.66" y="259.2">ag</tspan><tspan x="0" y="288">find_common_with_other(</tspan><tspan class="cls-4" x="0" y="316.8">	</tspan><tspan x="36" y="316.8">other_tags:list&lt;</tspan><tspan class="cls-9" x="199.43" y="316.8">T</tspan><tspan x="211.43" y="316.8">ag&gt;=None</tspan><tspan class="cls-4" x="0" y="345.6">	</tspan><tspan x="36" y="345.6">):list&lt;Course&gt;</tspan><tspan x="0" y="374.4">@staticmethod find_common(</tspan><tspan class="cls-4" x="0" y="403.2">	</tspan><tspan x="36" y="403.2">*tags): list&lt;Course&gt;</tspan></text></g><g id="Course"><rect class="cls-1" x="596.01" y="55.34" width="275.99" height="35.55"/><rect class="cls-1" x="596.01" y="90.88" width="275.99" height="130.95"/><rect class="cls-1" x="596.01" y="221.83" width="275.99" height="246.08"/><text class="cls-2" transform="translate(692.66 80.97)">Course</text><text class="cls-3" transform="translate(603 118.3)">name:str<tspan x="0" y="28.8">aliases:list&lt;str&gt;</tspan><tspan x="0" y="57.6">major:Major</tspan><tspan x="0" y="86.4">credit:int</tspan></text><text class="cls-3" transform="translate(603 249.25)">__init__(name:str=None,<tspan class="cls-4" x="0" y="28.8">	</tspan><tspan x="36" y="28.8">credit:int=1,</tspan><tspan class="cls-4" x="0" y="57.6">	</tspan><tspan x="36" y="57.6">major:Major=None,</tspan><tspan class="cls-4" x="0" y="86.4">	</tspan><tspan x="36" y="86.4">aliases:list&lt;str&gt;=[]</tspan><tspan class="cls-4" x="0" y="115.2">	</tspan><tspan x="36" y="115.2">):Course</tspan><tspan x="0" y="144">set_major(</tspan><tspan class="cls-4" x="0" y="172.8">	</tspan><tspan x="36" y="172.8">major:Major</tspan><tspan class="cls-4" x="0" y="201.6">	</tspan><tspan x="36" y="201.6">):Course</tspan></text></g><g id="Major"><rect class="cls-1" x="489.16" y="553.81" width="382.48" height="35.55"/><rect class="cls-1" x="489.16" y="589.36" width="382.48" height="130.95"/><rect class="cls-1" x="489.16" y="720.3" width="382.48" height="280.59"/><text class="cls-2" transform="translate(648.39 579.44)">Major</text><text class="cls-3" transform="translate(496.15 616.78)">name:str<tspan x="0" y="28.8">aliases:list&lt;str&gt;</tspan><tspan x="0" y="57.6">faculty:list&lt;Faculty&gt;</tspan><tspan x="0" y="86.4">courses:list&lt;Course&gt;</tspan></text><text class="cls-3" transform="translate(496.15 747.72)">__init__(name:str=None,<tspan class="cls-4" x="0" y="28.8">	</tspan><tspan x="36" y="28.8">faculty:Faculty=None,</tspan><tspan class="cls-4" x="0" y="57.6">	</tspan><tspan x="36" y="57.6">courses:list&lt;Course&gt;=[]</tspan><tspan class="cls-4" x="0" y="86.4">	</tspan><tspan x="36" y="86.4">aliases:list&lt;str&gt;=[]</tspan><tspan class="cls-4" x="0" y="115.2">	</tspan><tspan x="36" y="115.2">):Major</tspan><tspan x="0" y="144">set_faculty(</tspan><tspan class="cls-4" x="0" y="172.8">	</tspan><tspan x="36" y="172.8">faculty:Faculty</tspan><tspan class="cls-4" x="0" y="201.6">	</tspan><tspan x="36" y="201.6">):Major</tspan><tspan x="0" y="230.4">add_course(course:Course):Major</tspan></text></g><g id="Faculty"><rect class="cls-1" x="501.96" y="1086.8" width="356.87" height="35.55"/><rect class="cls-1" x="501.96" y="1122.34" width="356.87" height="130.95"/><rect class="cls-1" x="501.96" y="1253.29" width="356.87" height="280.59"/><text class="cls-2" transform="translate(638.39 1112.43)">Faculty</text><text class="cls-3" transform="translate(508.95 1149.76)">name:str<tspan x="0" y="28.8">aliases:list&lt;str&gt;</tspan><tspan x="0" y="57.6">university:University</tspan><tspan x="0" y="86.4">majors:list&lt;Major&gt;</tspan></text><text class="cls-3" transform="translate(508.95 1280.71)">__init__(name:str=None,<tspan class="cls-4" x="0" y="28.8">	</tspan><tspan x="36" y="28.8">university:University=None,</tspan><tspan class="cls-4" x="0" y="57.6">	</tspan><tspan x="36" y="57.6">majors:list&lt;Major&gt;=[]</tspan><tspan class="cls-4" x="0" y="86.4">	</tspan><tspan x="36" y="86.4">aliases:list&lt;str&gt;=[]</tspan><tspan class="cls-4" x="0" y="115.2">	</tspan><tspan x="36" y="115.2">):Faculty</tspan><tspan x="0" y="144">set_university(</tspan><tspan class="cls-4" x="0" y="172.8">	</tspan><tspan x="36" y="172.8">university:University</tspan><tspan class="cls-4" x="0" y="201.6">	</tspan><tspan x="36" y="201.6">):Faculty</tspan><tspan x="0" y="230.4">add_major(major:Major):Faculty</tspan></text></g><g id="University"><rect class="cls-1" x="473.13" y="1619.78" width="414.54" height="35.55"/><rect class="cls-1" x="473.13" y="1655.33" width="414.54" height="96.67"/><text class="cls-2" transform="translate(622.37 1645.41)">University</text><text class="cls-3" transform="translate(480.12 1682.75)">name:str<tspan x="0" y="28.8">aliases:list&lt;str&gt;</tspan><tspan x="0" y="57.6">factulties:list&lt;Factulty&gt;</tspan></text><rect class="cls-1" x="473.13" y="1751.99" width="414.54" height="155.77"/><text class="cls-3" transform="translate(480.12 1779.41)">__init__(name:str=None,<tspan class="cls-4" x="0" y="28.8">	</tspan><tspan x="36" y="28.8">faculties:list&lt;Faculty&gt;=[],</tspan><tspan class="cls-4" x="0" y="57.6">	</tspan><tspan x="36" y="57.6">aliases:list&lt;str&gt;=[]</tspan><tspan class="cls-4" x="0" y="86.4">	</tspan><tspan x="36" y="86.4">):University</tspan><tspan x="0" y="115.2">add_faculty(faculty:Faculty):University</tspan></text></g><g id="Layer_10" data-name="Layer 10"><polygon class="cls-1" points="443.7 246.32 419.05 261.85 443.7 277.38 468.34 261.85 443.7 246.32"/><polygon class="cls-1" points="254.14 695.95 238.61 671.31 223.09 695.95 238.61 720.6 254.14 695.95"/><line class="cls-7" x1="468.34" y1="261.85" x2="596.01" y2="261.85"/><line class="cls-7" x1="238.61" y1="671.31" x2="238.61" y2="631.92"/><line class="cls-7" x1="680.4" y1="553.81" x2="680.4" y2="467.91"/><text class="cls-10" transform="translate(548.67 249.25)">0..*</text><text class="cls-10" transform="translate(247.18 660.23)">0..*</text><text class="cls-10" transform="translate(690.18 544.23)">0..1</text><text class="cls-10" transform="translate(902.18 1703.66)">0..1</text><text class="cls-10" transform="translate(871.64 1286.68)">0..1</text><text class="cls-10" transform="translate(887.67 756.15)">0..1</text><text class="cls-10" transform="translate(881.67 294.68)">0..*</text><text class="cls-10" transform="translate(637.68 493.23)">0..*</text><line class="cls-7" x1="680.4" y1="1086.8" x2="680.4" y2="1000.89"/><text class="cls-10" transform="translate(690.18 1077.21)">0..1</text><text class="cls-10" transform="translate(637.68 1026.21)">0..*</text><line class="cls-7" x1="680.4" y1="1619.78" x2="680.4" y2="1533.88"/><text class="cls-10" transform="translate(690.18 1610.2)">0..1</text><text class="cls-10" transform="translate(637.68 1559.2)">0..*</text></g><g id="Layer_11" data-name="Layer 11"><text class="cls-11" transform="translate(1092.3 1149.76)"><tspan class="cls-12">KRSBot5000</tspan><tspan class="cls-13"><tspan x="50.46" y="34.72">Framework utility diagram</tspan><tspan x="-7.51" y="104.17">github.com/parampaa2/krsbot5000</tspan><tspan x="83.4" y="138.89">exclusive on Discord</tspan><tspan x="112.95" y="208.33">me@maufirf.me</tspan><tspan x="49.64" y="243.06">maufirf.me/Bottlemin-Bots</tspan></tspan></text></g></svg>